<?xml version="1.0" standalone="no"?>
<!DOCTYPE svg PUBLIC "-//W3C//DTD SVG 20010904//EN"
 "http://www.w3.org/TR/2001/REC-SVG-20010904/DTD/svg10.dtd">
<svg version="1.0" xmlns="http://www.w3.org/2000/svg"
 width="512.000000pt" height="512.000000pt" viewBox="0 0 512.000000 512.000000"
 preserveAspectRatio="xMidYMid meet">

<g transform="translate(0.000000,512.000000) scale(0.100000,-0.100000)"
fill="#000000" stroke="none">
<path d="M2180 5105 c-381 -56 -695 -216 -957 -488 -273 -284 -428 -647 -449
-1053 -14 -289 67 -620 215 -870 l30 -52 -124 -156 c-76 -95 -125 -166 -125
-179 0 -36 26 -64 126 -138 l95 -70 -18 -23 c-10 -12 -227 -280 -483 -594
-256 -314 -470 -586 -476 -604 -6 -18 -8 -42 -5 -53 4 -11 112 -104 240 -207
197 -159 238 -188 266 -188 18 0 42 8 53 18 12 9 240 287 508 617 267 330 490
601 495 603 5 2 50 -26 100 -62 92 -66 128 -78 167 -57 9 5 78 86 152 180
l135 171 55 -8 c30 -4 141 -7 245 -6 155 0 209 5 292 22 322 69 601 221 824
449 96 97 179 204 230 294 19 32 42 74 53 91 l19 33 51 -57 c28 -32 62 -61 76
-66 49 -18 238 46 260 89 7 12 15 51 18 86 6 83 15 89 98 70 41 -10 75 -12 88
-7 47 18 156 169 156 217 0 15 -14 55 -31 89 -18 34 -30 67 -26 76 3 9 33 29
67 44 85 38 90 47 90 179 0 133 -6 146 -96 186 -75 34 -78 45 -34 122 17 30
30 67 30 84 0 33 -56 126 -112 186 -39 41 -54 44 -140 23 -72 -17 -83 -7 -92
84 -5 49 -12 70 -30 88 -24 25 -180 82 -222 82 -18 0 -46 -19 -90 -62 -35 -34
-66 -59 -68 -57 -1 2 -22 38 -46 79 -202 352 -548 625 -940 742 -197 58 -482
81 -670 53z m430 -176 c419 -57 821 -333 1039 -714 342 -597 215 -1356 -304
-1807 -572 -498 -1426 -474 -1963 53 -358 352 -507 841 -407 1334 55 268 194
523 396 724 330 330 765 474 1239 410z m1443 -768 c21 -8 25 -18 31 -70 8 -70
30 -102 104 -151 42 -28 53 -31 97 -26 28 3 59 8 71 11 15 5 25 0 38 -19 16
-25 15 -27 -10 -67 -37 -59 -40 -96 -14 -173 23 -70 41 -90 109 -120 35 -17
41 -23 40 -50 0 -28 -6 -34 -62 -61 -61 -29 -62 -31 -84 -95 -29 -88 -28 -114
8 -178 l31 -55 -20 -20 c-19 -19 -24 -19 -81 -7 -58 12 -61 12 -105 -14 -24
-14 -60 -41 -79 -59 -31 -29 -36 -40 -42 -100 -7 -60 -10 -68 -32 -73 -20 -5
-34 2 -74 42 -27 26 -52 56 -55 66 -3 10 3 46 14 81 49 153 72 305 72 478 0
166 -21 294 -82 505 l-11 42 53 61 c29 33 54 61 56 61 1 0 14 -4 27 -9z
m-2835 -1772 c185 -195 413 -343 648 -423 36 -12 65 -26 64 -31 -1 -11 -142
-194 -150 -194 -4 -1 -321 229 -708 512 l-92 67 67 85 c38 47 70 85 71 85 2 0
47 -45 100 -101z m207 -609 c4 -6 -649 -819 -900 -1122 l-22 -26 -144 115
c-79 64 -143 119 -142 124 2 5 208 260 458 568 l456 560 144 -105 c80 -58 147
-109 150 -114z"/>
<path d="M2276 4769 c-570 -50 -1042 -484 -1142 -1049 -35 -199 -15 -453 50
-639 148 -422 507 -739 946 -836 104 -22 330 -31 427 -16 309 49 540 165 750
379 496 502 480 1321 -33 1811 -269 257 -627 383 -998 350z m327 -186 c48 -8
90 -19 92 -23 3 -5 -10 -18 -29 -29 -53 -33 -62 -68 -37 -143 26 -77 26 -90 1
-113 -20 -18 -23 -18 -89 3 -81 26 -99 27 -127 4 -48 -39 -184 -277 -184 -323
0 -12 26 -47 61 -84 54 -57 60 -67 54 -93 -5 -27 -12 -31 -68 -42 -73 -15
-112 -33 -121 -55 -3 -9 -6 -95 -6 -191 0 -171 1 -175 24 -199 15 -15 45 -28
83 -35 75 -15 81 -19 89 -56 5 -28 1 -35 -49 -78 -75 -64 -79 -86 -34 -181 37
-76 123 -211 151 -234 22 -18 71 -16 138 7 l56 20 23 -24 22 -24 -22 -73 c-26
-87 -21 -109 35 -154 l38 -30 -74 -18 c-41 -9 -129 -19 -195 -22 -450 -21
-873 242 -1053 653 -225 513 -43 1102 432 1395 237 146 502 194 789 142z m442
-193 c61 -45 165 -139 165 -149 0 -4 -19 -14 -42 -21 -201 -59 -385 -237 -467
-449 -41 -107 -55 -195 -48 -315 11 -214 108 -406 275 -548 57 -49 177 -116
246 -138 l38 -12 -58 -60 c-56 -56 -223 -178 -245 -178 -8 0 -88 42 -108 56
-1 2 7 32 19 69 13 38 19 76 16 90 -8 32 -152 174 -184 182 -15 3 -52 -3 -91
-15 -36 -12 -67 -18 -69 -14 -1 4 -18 32 -37 62 l-35 55 54 50 c29 28 56 60
60 72 8 24 -37 205 -59 239 -9 14 -33 26 -67 34 -29 6 -61 14 -70 17 -15 4
-18 17 -18 82 l0 77 62 12 c82 15 101 36 128 142 39 146 40 135 -28 199 l-60
57 35 62 c19 34 40 62 47 62 7 0 39 -9 71 -20 31 -11 68 -17 80 -14 32 8 185
167 185 192 0 11 -9 49 -20 84 -11 34 -20 64 -20 65 0 1 24 15 52 32 l53 30
45 -26 c25 -14 68 -42 95 -63z m345 -415 c110 -227 138 -504 76 -748 -27 -106
-115 -304 -140 -313 -8 -3 -41 2 -73 11 -252 73 -433 311 -433 570 0 264 175
497 430 571 88 26 81 31 140 -91z"/>
<path d="M3930 1856 c-164 -50 -179 -63 -187 -171 -5 -65 -9 -79 -28 -91 -20
-13 -30 -13 -89 2 -103 26 -123 14 -217 -124 -59 -89 -61 -114 -14 -192 54
-89 50 -104 -43 -145 -95 -42 -102 -55 -102 -191 0 -147 6 -159 97 -200 93
-43 98 -58 49 -147 -20 -35 -36 -76 -36 -91 0 -31 68 -141 122 -198 40 -43 64
-46 158 -24 76 18 100 3 100 -63 1 -70 16 -123 42 -143 28 -21 200 -78 236
-78 19 0 42 17 87 65 33 36 68 65 79 65 11 0 43 -27 73 -60 30 -33 65 -63 77
-66 52 -13 243 57 269 98 9 12 19 56 23 96 9 94 21 105 102 86 118 -28 137
-18 234 126 58 87 59 104 5 195 -46 79 -39 102 43 134 32 13 69 35 82 48 22
23 23 33 23 152 0 99 -3 132 -15 146 -8 10 -47 33 -86 51 -91 41 -95 54 -43
143 21 37 39 79 39 92 0 29 -99 178 -142 214 -35 29 -45 30 -134 10 -89 -21
-100 -12 -109 92 -6 56 -13 81 -29 98 -40 43 -225 102 -269 86 -13 -5 -46 -35
-72 -65 -62 -73 -85 -74 -140 -5 -32 40 -89 82 -107 78 -2 0 -37 -10 -78 -23z
m105 -221 l51 -55 96 0 97 0 55 57 c52 54 55 56 88 47 33 -10 33 -10 40 -83 5
-64 10 -77 37 -105 17 -17 55 -46 85 -65 l55 -33 68 16 c61 14 69 14 85 -1 30
-27 29 -48 -6 -115 -38 -74 -38 -89 5 -202 19 -53 23 -57 90 -88 68 -31 69
-32 69 -70 0 -38 -2 -40 -62 -67 -75 -33 -82 -41 -109 -117 -29 -84 -27 -120
10 -182 36 -62 37 -69 10 -101 -19 -23 -22 -24 -70 -13 -89 21 -110 17 -181
-37 -72 -55 -88 -84 -88 -163 0 -47 -2 -50 -35 -64 l-36 -15 -57 61 -58 60
-84 0 c-97 -1 -113 -7 -169 -72 -40 -44 -42 -46 -75 -36 -32 10 -34 13 -40 70
-10 96 -14 105 -79 153 -76 57 -93 61 -175 46 l-65 -12 -23 28 -23 28 36 64
c41 74 41 107 2 205 -23 57 -27 61 -91 93 -67 33 -68 34 -68 73 0 38 1 40 59
66 75 33 83 43 111 127 27 82 23 116 -18 183 -31 49 -31 55 1 97 13 16 18 16
85 1 l72 -16 45 26 c25 15 63 44 84 64 36 34 39 42 46 110 6 62 11 75 29 82
38 16 49 11 101 -45z"/>
<path d="M4039 1336 c-79 -32 -120 -59 -167 -110 -73 -79 -112 -179 -112 -287
0 -312 328 -518 610 -382 30 15 81 53 113 84 227 227 128 611 -182 705 -73 22
-196 18 -262 -10z m260 -172 c81 -41 141 -137 141 -227 0 -48 -32 -129 -66
-167 -68 -75 -180 -104 -278 -71 -92 32 -166 139 -166 241 1 188 199 308 369
224z"/>
</g>
</svg>
